<?xml version="1.0" encoding="utf-8"?>
<!DOCTYPE svg PUBLIC "-//W3C//DTD SVG 1.1//EN" "http://www.w3.org/Graphics/SVG/1.1/DTD/svg11.dtd">
<svg version="1.1" id="Layer_1" xmlns="http://www.w3.org/2000/svg" xmlns:xlink="http://www.w3.org/1999/xlink" x="0px" y="0px"
	 width="100px" height="100px" viewBox="0 0 100 100" enable-background="new 0 0 100 100" xml:space="preserve">
<g>
	<path fill="#2BB673" d="M42.17,52.98h-13.4c-0.12-0.85-0.19-1.72-0.2-2.61h13.06C41.67,51.29,41.85,52.16,42.17,52.98z"/>
	<path fill="#2B3990" d="M42.35,46.57l-9.47-9.47c0.52-0.7,1.09-1.36,1.7-1.99l9.23,9.23C43.22,45,42.72,45.75,42.35,46.57z"/>
	<path fill="#39B54A" d="M44.34,56.19c0.66,0.59,1.41,1.09,2.23,1.46l-9.47,9.47c-0.7-0.52-1.36-1.09-1.99-1.7L44.34,56.19z"/>
	<path fill="#A97C50" d="M47.02,28.77c0.85-0.12,1.72-0.19,2.61-0.2v13.06c-0.92,0.04-1.79,0.22-2.61,0.54V28.77z"/>
	<path fill="#662D91" d="M50.37,58.37c0.92-0.04,1.79-0.22,2.61-0.54v13.4c-0.85,0.12-1.72,0.19-2.61,0.2V58.37z"/>
	<path fill="#F7941E" d="M64.89,34.58l-9.23,9.23c-0.66-0.59-1.41-1.09-2.23-1.46l9.47-9.47C63.6,33.4,64.26,33.97,64.89,34.58z"/>
	<path fill="#00AEEF" d="M57.65,53.43l9.47,9.47c-0.52,0.7-1.09,1.36-1.7,1.99l-9.23-9.23C56.78,55,57.28,54.25,57.65,53.43z"/>
	<path fill="#F15A29" d="M57.83,47.02h13.4c0.12,0.85,0.19,1.72,0.2,2.61H58.37C58.33,48.71,58.15,47.84,57.83,47.02z"/>

	<animateTransform attributeName="transform"
                    attributeType="XML"
                    type="rotate"
                    from="0 50 50"
                    to="360 50 50"
                    dur="2s"
                    repeatCount="indefinite"/>
</g>
</svg>
